<?xml version="1.0" encoding="utf-8"?>
<!-- Generator: Adobe Illustrator 18.1.1, SVG Export Plug-In . SVG Version: 6.00 Build 0)  -->
<!DOCTYPE svg PUBLIC "-//W3C//DTD SVG 1.1//EN" "http://www.w3.org/Graphics/SVG/1.1/DTD/svg11.dtd">
<svg version="1.1" id="Layer_1" xmlns="http://www.w3.org/2000/svg" xmlns:xlink="http://www.w3.org/1999/xlink" x="0px" y="0px"
	 viewBox="0 183.4 500 316.5" enable-background="new 0 183.4 500 316.5" xml:space="preserve">
<g id="Layer_3" display="none">
</g>
<g id="Layer_1_1_">
</g>
<g id="Layer_2">
	<g>
		<path fill="#2BBDED" d="M442.7,468.6h-29.6V489h29.6V468.6z M440.5,487h-25.1v-16.1h25.1V487z"/>
		<rect x="418.2" y="473.6" fill="#2BBDED" width="1.9" height="11.2"/>
		<rect x="436.2" y="473.6" fill="#2BBDED" width="1.9" height="11.2"/>
		<rect x="421.8" y="473.6" fill="#2BBDED" width="3.4" height="11.2"/>
		<rect x="427.2" y="473.6" fill="#2BBDED" width="1.9" height="11.2"/>
		<rect x="431" y="473.6" fill="#2BBDED" width="4.1" height="11.2"/>
		<path fill="#2BBDED" d="M359.9,478.4h3.7v7.3h2.2v-7.3h3.7c0,0,0,0,0.2,0c0.9,0,1.2-0.6,0.8-1.4l-1.6-2.7l-3.3-5.8
			c-0.5-0.8-1.2-0.8-1.7,0l-3.3,5.8l-1.6,2.7C358.5,477.8,358.8,478.4,359.9,478.4C359.7,478.4,359.7,478.4,359.9,478.4z"/>
		<polygon fill="#2BBDED" points="380.5,486.7 359.6,486.7 359.6,488.9 380.5,488.9 384.5,488.9 385.9,488.9 385.9,486.7 
			384.5,486.7 		"/>
		<path fill="#2BBDED" d="M373.3,478.4C373.5,478.4,373.5,478.4,373.3,478.4h3.9v7.3h2.2v-7.3h1.1h2.7c0,0,0,0,0.2,0h1.2v-0.9h-0.3
			c0-0.2,0-0.3-0.2-0.5l-1.6-2.7l-3.3-5.8c-0.5-0.8-1.2-0.8-1.7,0l-3.3,5.8l-1.6,2.7C372.2,477.8,372.5,478.4,373.3,478.4z"/>
		<path fill="#2BBDED" d="M467.8,298.7c0-0.5-0.3-0.8-0.8-0.8h-98c-0.2,0-0.2,0-0.3,0l0,0l0,0c-0.3,0.2-0.6,0.5-0.6,0.8l0,0
			l-22,31.7l3,2.2l19-27.3v55.4c-2.5-0.9-5.3-1.4-8.1-1.4h-83c-9.8,0-18.4,5.9-22.2,14.5v0.2h-0.2v-0.2
			c-3.7-8.6-12.3-14.5-22.2-14.5h-83c-13.4,0-24.3,10.9-24.3,24.3v12.6c-2.7-3.6-6.9-5.9-11.5-5.9c-8.1,0-14.8,7.2-14.8,16.1v72.1
			h24.3v18.3h4.1v-18.3h221.1v17.6c0,0.6,0.5,1.2,1.2,1.2h100.6c0.6,0,1.2-0.5,1.2-1.2v-98.4h15.6c0.5,0,0.8-0.3,0.8-0.8v-92.7
			l19.2,25.3l2.7-1.9L467.8,298.7z M409.8,301.4h13.1v26.5l-1.7,1.7l-4.2-4.4l-5,3.6l-2.2-1.2L409.8,301.4L409.8,301.4z
			 M128.6,424.6c0.5-0.3,0.8-0.9,0.8-1.6v-39.5c0-11.2,9-20.3,20.3-20.3h83c10.8,0,19.5,8.4,20.1,18.9c0-0.2,0-0.5,0-0.6v2.7v11.1
			v31.8H128.6V424.6z M348.5,474.4H103.1v-68c0-6.6,4.8-12,10.6-12c5.9,0,10.6,5.3,10.6,12v25h224.2L348.5,474.4L348.5,474.4z
			 M348.5,395.4v31.8h-91.6v-31.8v-11.9v-1.9c0.9-10.3,9.5-18.4,20.1-18.4h83c3,0,5.6,0.6,8.1,1.7v29.2h-18.4
			C349,394.3,348.5,394.8,348.5,395.4z M448.5,494l-64-0.2h-4.1h-28.9v-15.4v-4.1v-42.8v-4.1v-29.8h16.8c0.2,0.2,0.3,0.3,0.6,0.3
			h11.2h3h1.1h4.1h0.8v28.6l5,2.8l4.7-3.4l4.7,4.8l2.8-3l1.4-1.6v-28.4h0.3h40.4L448.5,494L448.5,494z M391.2,424.9v-27.1h11.7h2.5
			v4.2v23.2l-2,2.2l-4.5-4.7l-5,3.7L391.2,424.9z M464.4,394.3h-13.9h-0.2h-79.1v-27.5V362v-60.8l35.7,0.2v27.9l5.1,2.8l4.4-3.3
			l4.5,4.7l4.5-4.5v-27.6l38.8,0.2L464.4,394.3z"/>
		<path fill="#2BBDED" d="M458.9,370h-28.2v19.5h28.2V370z M456.9,387.6h-24.5v-15.8H457L456.9,387.6z"/>
		<rect x="435.5" y="374.7" fill="#2BBDED" width="1.9" height="10.8"/>
		<rect x="452.8" y="374.7" fill="#2BBDED" width="1.9" height="10.8"/>
		<rect x="439" y="374.5" fill="#2BBDED" width="3.3" height="10.8"/>
		<rect x="444" y="374.7" fill="#2BBDED" width="1.9" height="10.8"/>
		<rect x="447.7" y="374.7" fill="#2BBDED" width="3.9" height="10.8"/>
		<path fill="#2BBDED" d="M379.7,379.2h3.3v7h1.4h0.6v-7h3.7c0.9,0,1.2-0.6,0.8-1.4l-4.7-8.1c-0.5-0.8-1.2-0.8-1.7,0l-1.6,2.7
			l-2.5,4.4l-0.6,0.9c-0.5,0.8-0.2,1.4,0.8,1.4L379.7,379.2L379.7,379.2L379.7,379.2z"/>
		<polygon fill="#2BBDED" points="380.2,387.3 379.1,387.3 379.1,389.2 380.2,389.2 384.4,389.2 404.3,389.2 404.3,387.3 
			384.4,387.3 		"/>
		<path fill="#2BBDED" d="M392.3,379.2h3.7v7h1.9v-7h3.7c0.9,0,1.2-0.6,0.8-1.4l-4.7-8.1c-0.5-0.8-1.2-0.8-1.7,0l-4.7,8.1
			C391.1,378.6,391.6,379.2,392.3,379.2z"/>
		<path fill="#2BBDED" d="M125.3,340.5c1.1,0,1.9-0.8,1.9-1.9v-57.4c0-1.1-0.8-1.9-1.9-1.9s-1.9,0.8-1.9,1.9v57.4
			C123.4,339.7,124.2,340.5,125.3,340.5z"/>
		<path fill="#2BBDED" d="M172.8,312.8h16.8c0.8,0,1.4-0.6,1.4-1.4s-0.6-1.4-1.4-1.4h-16.8c-0.8,0-1.4,0.6-1.4,1.4
			S172.1,312.8,172.8,312.8z"/>
		<path fill="#2BBDED" d="M74.9,312.8c0.8,0,1.4-0.6,1.4-1.4s-0.6-1.4-1.4-1.4h-7v-7c0-0.8-0.6-1.4-1.4-1.4s-1.4,0.6-1.4,1.4v7h-7
			c-0.8,0-1.4,0.6-1.4,1.4s0.6,1.4,1.4,1.4h7v7c0,0.8,0.6,1.4,1.4,1.4s1.4-0.6,1.4-1.4v-7H74.9z"/>
		<path fill="#2BBDED" d="M122.4,363.6v-17l113.3,0.5c2.5,0,4.5-2,4.5-4.5v-64.3c0-2.5-2-4.5-4.5-4.5H14.8c-2.5,0-4.5,2-4.5,4.5
			v64.4c0,2.5,2,4.5,4.5,4.5h71.1c0.2,0,0.3,0,0.5-0.2v7c-3.6-3.7-7.6-6.9-10.5-4.7c-3,2.2-2.5,5.3-1.4,6.9
			c1.9,3.4,5.5,9.4,8.1,13.7c1.2,2,2.2,3.6,2.7,4.5c3.6,6.2,10,10,17.2,10C113.4,384.4,122.4,375,122.4,363.6z M85.9,343.5H14.8
			c-0.5,0-0.8-0.3-0.8-0.8v-64.4c0-0.5,0.3-0.8,0.8-0.8h220.7c0.5,0,0.8,0.3,0.8,0.8v64.4c0,0.5-0.3,0.8-0.8,0.8L121,343
			c-0.9-1.1-2.3-1.9-3.7-1.9H117c-1.1,0-2,0.3-3,0.9c-0.9-2-2.8-3.4-5-3.4h-0.1c-1.2,0-2.3,0.5-3.1,1.1c-0.8-2-2.8-3.4-5.1-3.4h-0.2
			c-0.9,0-1.9,0.3-2.8,0.8v-10.3c0-2.8-2.5-5.3-5.5-5.3h-0.2c-3,0-5.5,2.5-5.5,5.5v16.5C86.2,343.5,86.1,343.5,85.9,343.5z
			 M87.8,373c-0.5-0.9-1.6-2.5-2.7-4.5c-2.7-4.4-6.2-10.3-8.1-13.7c-0.3-0.5-0.9-1.9,0.8-3.1c0.9-0.8,4.7,1.7,9,7
			c0.3,0.5,0.9,0.6,1.6,0.5c0.5-0.2,0.9-0.8,0.9-1.2v-30.7c0-1.6,1.2-2.8,2.8-2.8h0.2c1.4,0,2.8,1.1,2.8,2.5v15l0,0l0,0v7.8
			c0,0.8,0.6,1.4,1.4,1.4l0,0c0.8,0,1.4-0.6,1.4-1.4V342c0-1.6,1.2-2.7,2.8-2.7h0.2c1.6,0,2.8,1.2,2.8,2.8v7.8
			c0,0.8,0.6,1.4,1.4,1.4s1.4-0.6,1.4-1.4v-5.1l0,0c0-1.6,1.2-3,2.8-3h0.2c1.4,0,2.8,1.4,2.8,3v5.1c0,0.8,0.6,1.4,1.4,1.4
			s1.4-0.6,1.4-1.4v-3.1c0-1.4,1.1-2.7,2.5-2.7h0.2c0.8,0,1.6,0.5,2,1.2c0,0.3,0.2,0.5,0.3,0.8c0,0.2,0.2,0.5,0.2,0.6v17.2
			c0,9.8-7.8,17.9-17.3,17.9C96.4,381.6,90.9,378.4,87.8,373z"/>
		<path fill="#2BBDED" d="M101.4,326.2c0,1.7-0.5,3.3-1.2,4.7c-0.3,0.6-0.2,1.6,0.5,1.9c0.2,0.2,0.5,0.2,0.6,0.2
			c0.5,0,0.9-0.3,1.2-0.6c1.1-1.9,1.6-3.9,1.6-6.1c0-6.6-5.5-12-12-12c-6.6,0-12,5.5-12,12c0,1.9,0.5,3.7,1.2,5.5
			c0.3,0.6,1.1,0.9,1.9,0.6c0.6-0.3,0.9-1.1,0.6-1.9c-0.6-1.2-0.9-2.7-0.9-4.2c0-5.1,4.2-9.4,9.4-9.4
			C97.2,317,101.4,321,101.4,326.2z"/>
		<path fill="#2BBDED" d="M76.4,326.3c0-8.6,7-15.6,15.6-15.6s15.6,7,15.6,15.6c0,2.8-0.8,5.5-2.2,7.8c-0.3,0.6-0.2,1.6,0.5,1.9
			c0.2,0.2,0.5,0.2,0.6,0.2c0.5,0,0.9-0.3,1.2-0.6c1.6-2.8,2.5-5.9,2.5-9.2c0-10.1-8.3-18.4-18.4-18.4s-18.4,8.3-18.4,18.4
			c0,3,0.6,5.8,2,8.3c0.3,0.6,1.1,0.9,1.9,0.6c0.6-0.3,0.9-1.1,0.6-1.9C76.9,331.3,76.4,328.8,76.4,326.3z"/>
		
			<rect x="243.2" y="230.8" transform="matrix(-4.777219e-03 -1 1 -4.777219e-03 14.9381 479.4857)" fill="#2BBDED" width="5.8" height="3"/>
		<path fill="#2BBDED" d="M238.4,208.9v-0.8c0-2,0.6-3.9,2-5.3c1.4-1.4,3.3-2.2,5.3-2.2s3.9,0.6,5.5,2.2c1.6,1.4,2.2,3.3,2.3,5.3
			c0,1.6-0.5,3.1-1.6,4.7c-0.6,0.9-1.2,1.6-1.9,1.9c-1.7,1.1-2.7,1.7-3,2c-0.6,0.6-1.1,1.1-1.6,1.9c-0.6,0.9-0.8,2.5-0.8,4.7v3.6h3
			v-3.7c0-2,0.3-2.8,0.5-3c0.3-0.5,0.8-1.1,1.2-1.4c0.6-0.5,1.2-0.9,2-1.4c1.2-0.9,2.3-1.9,3.1-2.8c1.4-1.9,2-3.9,2-6.4
			c0-3-1.1-5.5-3.3-7.5c-2-2-4.7-3-7.5-3c-3,0-5.5,1.1-7.5,3.1s-3,4.5-3,7.5v0.8L238.4,208.9z"/>
		<path fill="#2BBDED" d="M246.2,245.5L246.2,245.5c16.5-0.2,29.8-13.4,29.6-29.8c0-16.2-13.4-29.5-29.6-29.5H246
			c-8,0-15.3,3.1-20.9,8.7c-5.6,5.6-8.6,13.1-8.6,21.1C216.6,232.3,229.8,245.5,246.2,245.5z M227.1,197c5-5.1,11.9-8,19.2-8
			c14.8,0,26.8,12,27,26.8c0,14.8-12,27-26.8,27l-0.2,1.4v-1.4c-14.8,0-26.8-12-27-26.8C219.2,208.9,222.1,202.1,227.1,197z"/>
		<path fill="#2BBDED" d="M198.8,238.6l1.7,2.5l0.2,0.2l0,0h0.2l1.4-0.9c0.2-0.2,0.2-0.3,0.2-0.5l-1.7-2.5l-0.2-0.2
			c-0.2,0-0.2,0-0.3,0l-1.4,0.9C198.8,238.3,198.6,238.5,198.8,238.6z"/>
		<path fill="#2BBDED" d="M188.8,232.1l0.2,0.2c0.2,0,0.2,0,0.3,0l1.2-0.9c0.2-0.2,0.2-0.3,0.2-0.5l-0.2-0.3
			c-0.6-0.9-0.8-1.9-0.5-2.8c0.2-0.9,0.8-1.7,1.7-2.3s1.9-0.8,2.8-0.5c0.9,0.2,1.7,0.8,2.3,1.6c0.5,0.6,0.6,1.4,0.5,2.3
			c0,0.5-0.2,0.9-0.3,1.2c-0.5,0.9-0.8,1.6-0.8,1.9c-0.2,0.5-0.2,0.9-0.2,1.4c0,0.6,0.3,1.6,1.1,2.5l1.1,1.6l0.2,0.2l0,0h0.2
			l1.4-0.9c0.2-0.2,0.2-0.3,0.2-0.5l-1.1-1.7c-0.6-0.9-0.6-1.2-0.6-1.2c0-0.3,0-0.6,0.2-0.9c0.2-0.3,0.3-0.8,0.5-1.2
			c0.3-0.8,0.6-1.6,0.6-2.2c0.2-1.2-0.2-2.5-0.9-3.7c-0.9-1.4-2.2-2.3-3.7-2.7c-1.6-0.3-3.1,0-4.5,0.8c-1.4,0.9-2.3,2.2-2.7,3.7
			c-0.3,1.6,0,3.1,0.8,4.5V232.1z"/>
		<path fill="#2BBDED" d="M195.8,250.3c3.6,0,7-1.1,10-3c4.1-2.7,6.9-6.7,8-11.5s0.2-9.7-2.5-13.9c-3.4-5.3-9.2-8.4-15.4-8.4
			c-3.6,0-7,1.1-10,3c-4.1,2.7-6.9,6.7-8,11.5s-0.2,9.7,2.5,13.9C183.8,247.2,189.6,250.3,195.8,250.3z M180.6,228.7
			c0.9-4.1,3.3-7.6,6.7-9.8c2.5-1.7,5.5-2.5,8.4-2.5c5.3,0,10.3,2.7,13.1,7.2c2.3,3.4,3.1,7.6,2.2,11.7c-0.9,4.1-3.3,7.6-6.7,9.8
			c-2.5,1.7-5.5,2.5-8.4,2.5c-5.3,0-10.3-2.7-13.1-7.2C180.3,236.9,179.8,232.9,180.6,228.7z"/>
	</g>
</g>
</svg>
